<?xml version="1.0" standalone="no"?>
<!DOCTYPE svg PUBLIC "-//W3C//DTD SVG 20010904//EN"
 "http://www.w3.org/TR/2001/REC-SVG-20010904/DTD/svg10.dtd">
<svg version="1.0" xmlns="http://www.w3.org/2000/svg"
 width="32.000000pt" height="32.000000pt" viewBox="0 0 32.000000 32.000000"
 preserveAspectRatio="xMidYMid meet">

<g transform="translate(0.000000,32.000000) scale(0.100000,-0.100000)"
fill="#000000" stroke="none">
<path d="M17 302 c-14 -15 -17 -41 -17 -144 0 -163 -5 -158 162 -158 163 0
158 -5 158 162 0 163 5 158 -162 158 -108 0 -127 -2 -141 -18z m192 -23 c27
-26 27 -94 -1 -94 -9 0 -20 -4 -24 -8 -4 -4 -2 -7 5 -7 7 0 9 -4 6 -10 -11
-18 -58 -11 -82 12 -28 26 -30 75 -5 106 22 28 71 29 101 1z m-129 -153 c0
-18 -26 -39 -39 -31 -7 4 -6 12 2 25 14 23 37 27 37 6z m110 -2 c17 9 30 14
29 9 -1 -4 1 -16 6 -26 11 -26 0 -32 -71 -33 -66 -2 -69 0 -58 43 6 22 7 22
35 6 27 -16 31 -16 59 1z m87 -4 c8 -13 9 -21 2 -25 -13 -8 -39 13 -39 31 0
21 23 17 37 -6z m-107 -100 c0 -3 -11 -5 -25 -5 -28 0 -30 7 -14 37 11 21 12
21 25 -3 7 -13 13 -26 14 -29z m30 15 c0 -14 -4 -25 -10 -25 -5 0 -10 11 -10
25 0 14 5 25 10 25 6 0 10 -11 10 -25z"/>
<path d="M100 220 c0 -18 7 -20 60 -20 53 0 60 2 60 20 0 18 -7 20 -60 20 -53
0 -60 -2 -60 -20z m35 0 c3 -5 1 -10 -4 -10 -6 0 -11 5 -11 10 0 6 2 10 4 10
3 0 8 -4 11 -10z m65 0 c0 -5 -5 -10 -11 -10 -5 0 -7 5 -4 10 3 6 8 10 11 10
2 0 4 -4 4 -10z"/>
</g>
</svg>
